<?xml version="1.0" standalone="no"?>
<!DOCTYPE svg PUBLIC "-//W3C//DTD SVG 20010904//EN"
 "http://www.w3.org/TR/2001/REC-SVG-20010904/DTD/svg10.dtd">
<svg version="1.0" xmlns="http://www.w3.org/2000/svg"
 width="512.000000pt" height="512.000000pt" viewBox="0 0 512.000000 512.000000"
 preserveAspectRatio="xMidYMid meet">

<g transform="translate(0.000000,512.000000) scale(0.100000,-0.100000)"
fill="#000000" stroke="none">
<path d="M3010 4789 c-82 -33 -125 -141 -86 -217 29 -56 1255 -1655 1282
-1673 19 -12 47 -19 80 -19 120 0 202 128 145 225 -49 83 -1258 1659 -1286
1676 -32 20 -95 24 -135 8z"/>
<path d="M2185 4024 c-65 -34 -95 -80 -97 -147 0 -24 7 -57 15 -74 11 -20 289
-240 833 -659 449 -346 833 -639 853 -651 73 -46 165 -22 218 56 29 43 31 113
5 156 -19 31 -1620 1271 -1695 1313 -47 26 -90 28 -132 6z"/>
<path d="M1669 3197 c-53 -35 -79 -82 -79 -140 0 -103 -64 -65 1006 -600 877
-438 968 -482 1009 -480 122 4 192 131 132 238 -21 39 -50 54 -985 523 -1052
527 -1009 509 -1083 459z"/>
<path d="M1405 2123 c-89 -23 -141 -147 -97 -232 25 -51 57 -69 162 -92 349
-76 1996 -409 2022 -409 113 0 189 147 126 240 -48 70 70 41 -1318 325 -118
24 -358 74 -534 110 -175 36 -324 64 -330 64 -6 -1 -20 -4 -31 -6z"/>
<path d="M502 1940 c-18 -11 -41 -34 -52 -52 -19 -32 -20 -53 -20 -904 l0
-871 23 -33 c12 -18 35 -43 50 -54 l28 -21 2029 0 2029 0 28 21 c15 11 38 36
51 54 l22 33 0 871 c0 851 -1 872 -20 904 -59 97 -217 96 -276 -1 -18 -31 -19
-64 -22 -799 l-2 -768 -1810 0 -1810 0 -2 768 c-3 735 -4 768 -22 799 -42 68
-154 95 -224 53z"/>
<path d="M1340 1122 c-52 -26 -82 -84 -77 -150 4 -56 23 -91 71 -126 27 -21
34 -21 1109 -24 l1082 -2 44 22 c106 55 111 216 9 278 -32 20 -53 20 -1118 20
-1013 0 -1087 -1 -1120 -18z"/>
</g>
</svg>
